# MagicaVoxel @ Ephtracy

# group
o 

# material
mtllib heart.mtl
usemtl palette

# normals
vn -1 0 0
vn 1 0 0
vn 0 0 1
vn 0 0 -1
vn 0 -1 0
vn 0 1 0

# texcoords
vt 0.841797 0.5
vt 0.849609 0.5
vt 0.958984 0.5
vt 0.994141 0.5

# verts
v -0.4 0.4 0
v -0.4 0.4 -0.1
v -0.4 0.7 0
v -0.4 0.7 -0.1
v -0.3 0.3 0
v -0.3 0.3 -0.1
v -0.3 0.4 0
v -0.3 0.4 -0.1
v -0.3 0.7 0
v -0.3 0.7 -0.1
v -0.3 0.8 0
v -0.3 0.8 -0.1
v -0.2 0.2 0
v -0.2 0.2 -0.1
v -0.2 0.3 0
v -0.2 0.3 -0.1
v -0.2 0.8 0
v -0.2 0.8 -0.1
v -0.2 0.9 0
v -0.2 0.9 -0.1
v -0.1 0.1 0
v -0.1 0.1 -0.1
v -0.1 0.2 0
v -0.1 0.2 -0.1
v 0 0 0
v 0 0 -0.1
v 0 0.1 0
v 0 0.1 -0.1
v 0.1 0.8 0
v 0.1 0.8 -0.1
v 0.1 0.9 0
v 0.1 0.9 -0.1
v 0 0.8 0
v 0 0.8 -0.1
v 0 0.9 0
v 0 0.9 -0.1
v 0.1 0 0
v 0.1 0 -0.1
v 0.1 0.1 0
v 0.1 0.1 -0.1
v 0.2 0.1 0
v 0.2 0.1 -0.1
v 0.2 0.2 0
v 0.2 0.2 -0.1
v 0.3 0.2 0
v 0.3 0.2 -0.1
v 0.3 0.3 0
v 0.3 0.3 -0.1
v 0.3 0.8 0
v 0.3 0.8 -0.1
v 0.3 0.9 0
v 0.3 0.9 -0.1
v 0.4 0.3 0
v 0.4 0.3 -0.1
v 0.4 0.4 0
v 0.4 0.4 -0.1
v 0.4 0.7 0
v 0.4 0.7 -0.1
v 0.4 0.8 0
v 0.4 0.8 -0.1
v 0.5 0.4 0
v 0.5 0.4 -0.1
v 0.5 0.7 0
v 0.5 0.7 -0.1
v -0.4 0.4 0
v -0.4 0.7 0
v -0.3 0.3 0
v -0.3 0.4 0
v -0.3 0.7 0
v -0.3 0.8 0
v -0.2 0.2 0
v -0.2 0.3 0
v -0.2 0.4 0
v -0.2 0.6 0
v -0.2 0.7 0
v -0.2 0.8 0
v -0.2 0.9 0
v -0.1 0.1 0
v -0.1 0.2 0
v -0.1 0.3 0
v -0.1 0.6 0
v -0.1 0.7 0
v 0 0 0
v 0 0.1 0
v 0 0.2 0
v 0 0.7 0
v 0 0.8 0
v 0 0.9 0
v 0.1 0 0
v 0.1 0.1 0
v 0.1 0.2 0
v 0.1 0.3 0
v 0.1 0.7 0
v 0.1 0.8 0
v 0.1 0.9 0
v 0.2 0.1 0
v 0.2 0.2 0
v 0.2 0.3 0
v 0.2 0.4 0
v 0.3 0.2 0
v 0.3 0.3 0
v 0.3 0.4 0
v 0.3 0.5 0
v 0.3 0.7 0
v 0.3 0.8 0
v 0.3 0.9 0
v 0.4 0.3 0
v 0.4 0.4 0
v 0.4 0.5 0
v 0.4 0.7 0
v 0.4 0.8 0
v 0.5 0.4 0
v 0.5 0.7 0
v -0.4 0.4 -0.1
v -0.4 0.7 -0.1
v -0.3 0.3 -0.1
v -0.3 0.4 -0.1
v -0.3 0.7 -0.1
v -0.3 0.8 -0.1
v -0.2 0.2 -0.1
v -0.2 0.3 -0.1
v -0.2 0.4 -0.1
v -0.2 0.6 -0.1
v -0.2 0.7 -0.1
v -0.2 0.8 -0.1
v -0.2 0.9 -0.1
v -0.1 0.1 -0.1
v -0.1 0.2 -0.1
v -0.1 0.3 -0.1
v -0.1 0.6 -0.1
v -0.1 0.7 -0.1
v 0 0 -0.1
v 0 0.1 -0.1
v 0 0.2 -0.1
v 0 0.7 -0.1
v 0 0.8 -0.1
v 0 0.9 -0.1
v 0.1 0 -0.1
v 0.1 0.1 -0.1
v 0.1 0.2 -0.1
v 0.1 0.3 -0.1
v 0.1 0.7 -0.1
v 0.1 0.8 -0.1
v 0.1 0.9 -0.1
v 0.2 0.1 -0.1
v 0.2 0.2 -0.1
v 0.2 0.3 -0.1
v 0.2 0.4 -0.1
v 0.3 0.2 -0.1
v 0.3 0.3 -0.1
v 0.3 0.4 -0.1
v 0.3 0.5 -0.1
v 0.3 0.7 -0.1
v 0.3 0.8 -0.1
v 0.3 0.9 -0.1
v 0.4 0.3 -0.1
v 0.4 0.4 -0.1
v 0.4 0.5 -0.1
v 0.4 0.7 -0.1
v 0.4 0.8 -0.1
v 0.5 0.4 -0.1
v 0.5 0.7 -0.1
v 0 0 0
v 0.1 0 0
v 0 0 -0.1
v 0.1 0 -0.1
v -0.1 0.1 0
v 0 0.1 0
v 0.1 0.1 0
v 0.2 0.1 0
v -0.1 0.1 -0.1
v 0 0.1 -0.1
v 0.1 0.1 -0.1
v 0.2 0.1 -0.1
v -0.2 0.2 0
v -0.1 0.2 0
v 0.2 0.2 0
v 0.3 0.2 0
v -0.2 0.2 -0.1
v -0.1 0.2 -0.1
v 0.2 0.2 -0.1
v 0.3 0.2 -0.1
v -0.3 0.3 0
v -0.2 0.3 0
v 0.3 0.3 0
v 0.4 0.3 0
v -0.3 0.3 -0.1
v -0.2 0.3 -0.1
v 0.3 0.3 -0.1
v 0.4 0.3 -0.1
v -0.4 0.4 0
v -0.3 0.4 0
v 0.4 0.4 0
v 0.5 0.4 0
v -0.4 0.4 -0.1
v -0.3 0.4 -0.1
v 0.4 0.4 -0.1
v 0.5 0.4 -0.1
v -0.4 0.7 0
v -0.3 0.7 0
v 0.4 0.7 0
v 0.5 0.7 0
v -0.4 0.7 -0.1
v -0.3 0.7 -0.1
v 0.4 0.7 -0.1
v 0.5 0.7 -0.1
v -0.3 0.8 0
v -0.2 0.8 0
v 0 0.8 0
v 0.1 0.8 0
v 0.3 0.8 0
v 0.4 0.8 0
v -0.3 0.8 -0.1
v -0.2 0.8 -0.1
v 0 0.8 -0.1
v 0.1 0.8 -0.1
v 0.3 0.8 -0.1
v 0.4 0.8 -0.1
v -0.2 0.9 0
v 0 0.9 0
v 0.1 0.9 0
v 0.3 0.9 0
v -0.2 0.9 -0.1
v 0 0.9 -0.1
v 0.1 0.9 -0.1
v 0.3 0.9 -0.1

# faces
f 3/4/1 2/4/1 1/4/1
f 4/4/1 2/4/1 3/4/1
f 7/4/1 6/4/1 5/4/1
f 8/4/1 6/4/1 7/4/1
f 11/4/1 10/4/1 9/4/1
f 12/4/1 10/4/1 11/4/1
f 15/4/1 14/4/1 13/4/1
f 16/4/1 14/4/1 15/4/1
f 19/4/1 18/4/1 17/4/1
f 20/4/1 18/4/1 19/4/1
f 23/4/1 22/4/1 21/4/1
f 24/4/1 22/4/1 23/4/1
f 27/4/1 26/4/1 25/4/1
f 28/4/1 26/4/1 27/4/1
f 31/4/1 30/4/1 29/4/1
f 32/4/1 30/4/1 31/4/1
f 33/4/2 34/4/2 35/4/2
f 35/4/2 34/4/2 36/4/2
f 37/4/2 38/4/2 39/4/2
f 39/4/2 38/4/2 40/4/2
f 41/4/2 42/4/2 43/4/2
f 43/4/2 42/4/2 44/4/2
f 45/4/2 46/4/2 47/4/2
f 47/4/2 46/4/2 48/4/2
f 49/4/2 50/4/2 51/4/2
f 51/4/2 50/4/2 52/4/2
f 53/4/2 54/4/2 55/4/2
f 55/4/2 54/4/2 56/4/2
f 57/4/2 58/4/2 59/4/2
f 59/4/2 58/4/2 60/4/2
f 61/4/2 62/4/2 63/4/2
f 63/4/2 62/4/2 64/4/2
f 68/4/3 66/4/3 65/4/3
f 69/4/3 66/4/3 68/4/3
f 72/4/3 68/4/3 67/4/3
f 73/1/3 69/1/3 68/1/3
f 73/4/3 68/4/3 72/4/3
f 74/1/3 69/1/3 73/1/3
f 75/4/3 70/4/3 69/4/3
f 75/1/3 69/1/3 74/1/3
f 76/4/3 70/4/3 75/4/3
f 79/4/3 72/4/3 71/4/3
f 80/1/3 74/1/3 73/1/3
f 80/1/3 73/1/3 72/1/3
f 80/4/3 72/4/3 79/4/3
f 81/3/3 75/3/3 74/3/3
f 81/1/3 74/1/3 80/1/3
f 82/1/3 76/1/3 75/1/3
f 82/3/3 75/3/3 81/3/3
f 84/4/3 79/4/3 78/4/3
f 85/1/3 80/1/3 79/1/3
f 85/1/3 81/1/3 80/1/3
f 85/4/3 79/4/3 84/4/3
f 85/1/3 82/1/3 81/1/3
f 86/1/3 76/1/3 82/1/3
f 86/1/3 82/1/3 85/1/3
f 87/4/3 77/4/3 76/4/3
f 87/1/3 76/1/3 86/1/3
f 88/4/3 77/4/3 87/4/3
f 89/4/3 84/4/3 83/4/3
f 90/2/3 85/2/3 84/2/3
f 90/4/3 84/4/3 89/4/3
f 91/1/3 86/1/3 85/1/3
f 91/2/3 85/2/3 90/2/3
f 92/1/3 86/1/3 91/1/3
f 93/4/3 87/4/3 86/4/3
f 93/1/3 86/1/3 92/1/3
f 94/4/3 87/4/3 93/4/3
f 96/4/3 91/4/3 90/4/3
f 97/2/3 92/2/3 91/2/3
f 97/4/3 91/4/3 96/4/3
f 98/1/3 94/1/3 93/1/3
f 98/2/3 92/2/3 97/2/3
f 98/1/3 93/1/3 92/1/3
f 99/1/3 94/1/3 98/1/3
f 100/4/3 98/4/3 97/4/3
f 101/2/3 99/2/3 98/2/3
f 101/4/3 98/4/3 100/4/3
f 102/1/3 94/1/3 99/1/3
f 102/2/3 99/2/3 101/2/3
f 103/1/3 94/1/3 102/1/3
f 104/1/3 94/1/3 103/1/3
f 105/4/3 95/4/3 94/4/3
f 105/1/3 94/1/3 104/1/3
f 106/4/3 95/4/3 105/4/3
f 107/4/3 102/4/3 101/4/3
f 108/2/3 103/2/3 102/2/3
f 108/4/3 102/4/3 107/4/3
f 109/1/3 104/1/3 103/1/3
f 109/2/3 103/2/3 108/2/3
f 110/4/3 105/4/3 104/4/3
f 110/1/3 104/1/3 109/1/3
f 111/4/3 105/4/3 110/4/3
f 112/4/3 109/4/3 108/4/3
f 112/4/3 110/4/3 109/4/3
f 113/4/3 110/4/3 112/4/3
f 114/4/4 115/4/4 117/4/4
f 117/4/4 115/4/4 118/4/4
f 116/4/4 117/4/4 121/4/4
f 117/1/4 118/1/4 122/1/4
f 121/4/4 117/4/4 122/4/4
f 122/1/4 118/1/4 123/1/4
f 118/4/4 119/4/4 124/4/4
f 123/1/4 118/1/4 124/1/4
f 124/4/4 119/4/4 125/4/4
f 120/4/4 121/4/4 128/4/4
f 122/1/4 123/1/4 129/1/4
f 121/1/4 122/1/4 129/1/4
f 128/4/4 121/4/4 129/4/4
f 123/3/4 124/3/4 130/3/4
f 129/1/4 123/1/4 130/1/4
f 124/1/4 125/1/4 131/1/4
f 130/3/4 124/3/4 131/3/4
f 127/4/4 128/4/4 133/4/4
f 128/1/4 129/1/4 134/1/4
f 129/1/4 130/1/4 134/1/4
f 133/4/4 128/4/4 134/4/4
f 130/1/4 131/1/4 134/1/4
f 131/1/4 125/1/4 135/1/4
f 134/1/4 131/1/4 135/1/4
f 125/4/4 126/4/4 136/4/4
f 135/1/4 125/1/4 136/1/4
f 136/4/4 126/4/4 137/4/4
f 132/4/4 133/4/4 138/4/4
f 133/2/4 134/2/4 139/2/4
f 138/4/4 133/4/4 139/4/4
f 134/1/4 135/1/4 140/1/4
f 139/2/4 134/2/4 140/2/4
f 140/1/4 135/1/4 141/1/4
f 135/4/4 136/4/4 142/4/4
f 141/1/4 135/1/4 142/1/4
f 142/4/4 136/4/4 143/4/4
f 139/4/4 140/4/4 145/4/4
f 140/2/4 141/2/4 146/2/4
f 145/4/4 140/4/4 146/4/4
f 142/1/4 143/1/4 147/1/4
f 146/2/4 141/2/4 147/2/4
f 141/1/4 142/1/4 147/1/4
f 147/1/4 143/1/4 148/1/4
f 146/4/4 147/4/4 149/4/4
f 147/2/4 148/2/4 150/2/4
f 149/4/4 147/4/4 150/4/4
f 148/1/4 143/1/4 151/1/4
f 150/2/4 148/2/4 151/2/4
f 151/1/4 143/1/4 152/1/4
f 152/1/4 143/1/4 153/1/4
f 143/4/4 144/4/4 154/4/4
f 153/1/4 143/1/4 154/1/4
f 154/4/4 144/4/4 155/4/4
f 150/4/4 151/4/4 156/4/4
f 151/2/4 152/2/4 157/2/4
f 156/4/4 151/4/4 157/4/4
f 152/1/4 153/1/4 158/1/4
f 157/2/4 152/2/4 158/2/4
f 153/4/4 154/4/4 159/4/4
f 158/1/4 153/1/4 159/1/4
f 159/4/4 154/4/4 160/4/4
f 157/4/4 158/4/4 161/4/4
f 158/4/4 159/4/4 161/4/4
f 161/4/4 159/4/4 162/4/4
f 165/4/5 164/4/5 163/4/5
f 166/4/5 164/4/5 165/4/5
f 171/4/5 168/4/5 167/4/5
f 172/4/5 168/4/5 171/4/5
f 173/4/5 170/4/5 169/4/5
f 174/4/5 170/4/5 173/4/5
f 179/4/5 176/4/5 175/4/5
f 180/4/5 176/4/5 179/4/5
f 181/4/5 178/4/5 177/4/5
f 182/4/5 178/4/5 181/4/5
f 187/4/5 184/4/5 183/4/5
f 188/4/5 184/4/5 187/4/5
f 189/4/5 186/4/5 185/4/5
f 190/4/5 186/4/5 189/4/5
f 195/4/5 192/4/5 191/4/5
f 196/4/5 192/4/5 195/4/5
f 197/4/5 194/4/5 193/4/5
f 198/4/5 194/4/5 197/4/5
f 199/4/6 200/4/6 203/4/6
f 203/4/6 200/4/6 204/4/6
f 201/4/6 202/4/6 205/4/6
f 205/4/6 202/4/6 206/4/6
f 207/4/6 208/4/6 213/4/6
f 213/4/6 208/4/6 214/4/6
f 209/4/6 210/4/6 215/4/6
f 215/4/6 210/4/6 216/4/6
f 211/4/6 212/4/6 217/4/6
f 217/4/6 212/4/6 218/4/6
f 219/4/6 220/4/6 223/4/6
f 223/4/6 220/4/6 224/4/6
f 221/4/6 222/4/6 225/4/6
f 225/4/6 222/4/6 226/4/6
