# MagicaVoxel @ Ephtracy

# group
o 

# material
mtllib trusi.mtl
usemtl palette

# normals
vn -1 0 0
vn 1 0 0
vn 0 0 1
vn 0 0 -1
vn 0 -1 0
vn 0 1 0

# texcoords
vt 0.0449219 0.5
vt 0.845703 0.5
vt 0.857422 0.5

# verts
v -1.6 1.4 0.4
v -1.6 1.4 0.3
v -1.6 1.6 0.3
v -1.6 1.6 -0.4
v -1.6 1.8 0.4
v -1.6 1.8 -0.4
v -1.4 1.3 0.4
v -1.4 1.3 0.3
v -1.4 1.4 0.4
v -1.4 1.4 0.3
v -1.2 1.2 0.4
v -1.2 1.2 0.3
v -1.2 1.3 0.4
v -1.2 1.3 0.3
v -1 1.1 0.4
v -1 1.1 0.3
v -1 1.2 0.4
v -1 1.2 0.3
v -0.9 1 0.4
v -0.9 1 0.3
v -0.9 1.1 0.4
v -0.9 1.1 0.3
v -0.7 0.8 0.4
v -0.7 0.8 0.3
v -0.7 1 0.4
v -0.7 1 0.3
v -0.6 0.6 0.4
v -0.6 0.6 0.3
v -0.6 0.8 0.4
v -0.6 0.8 0.3
v -0.4 0.4 0.4
v -0.4 0.4 0.3
v -0.4 0.6 0.4
v -0.4 0.6 0.3
v -0.4 1.5 -0.3
v -0.4 1.5 -0.4
v -0.4 1.6 -0.3
v -0.4 1.6 -0.4
v -0.3 1.2 -0.3
v -0.3 1.2 -0.4
v -0.3 1.5 -0.3
v -0.3 1.5 -0.4
v -0.2 0 0.4
v -0.2 0 -0.4
v -0.2 0.1 0.3
v -0.2 0.1 -0.3
v -0.2 0.4 0.4
v -0.2 0.4 0.3
v -0.2 1.2 -0.3
v -0.2 1.2 -0.4
v 1.5 1.6 0.3
v 1.5 1.6 0.1
v 1.5 1.6 -0.3
v 1.5 1.7 0.3
v 1.5 1.7 0.1
v 1.5 1.8 0.3
v 1.5 1.8 -0.3
v -1.5 1.6 0.3
v -1.5 1.6 -0.3
v -1.5 1.7 0.3
v -1.5 1.8 0.3
v -1.5 1.8 -0.3
v 0.2 0 0.4
v 0.2 0 -0.3
v 0.2 0 -0.4
v 0.2 0.1 0.3
v 0.2 0.1 -0.3
v 0.2 0.4 0.4
v 0.2 0.4 0.3
v 0.2 1.2 -0.3
v 0.2 1.2 -0.4
v 0.3 1.2 -0.3
v 0.3 1.2 -0.4
v 0.3 1.5 -0.3
v 0.3 1.5 -0.4
v 0.4 0.4 0.4
v 0.4 0.4 0.3
v 0.4 0.6 0.4
v 0.4 0.6 0.3
v 0.4 1.5 -0.3
v 0.4 1.5 -0.4
v 0.4 1.6 -0.3
v 0.4 1.6 -0.4
v 0.6 0.6 0.4
v 0.6 0.6 0.3
v 0.6 0.8 0.4
v 0.6 0.8 0.3
v 0.8 0.8 0.4
v 0.8 0.8 0.3
v 0.8 1 0.4
v 0.8 1 0.3
v 1 1 0.4
v 1 1 0.3
v 1 1.2 0.4
v 1 1.2 0.3
v 1.3 1.2 0.4
v 1.3 1.2 0.3
v 1.3 1.3 0.4
v 1.3 1.3 0.3
v 1.4 1.3 0.4
v 1.4 1.3 0.3
v 1.4 1.4 0.4
v 1.4 1.4 0.3
v 1.6 1.4 0.4
v 1.6 1.4 0.3
v 1.6 1.6 0.3
v 1.6 1.6 0.1
v 1.6 1.6 -0.4
v 1.6 1.7 0.4
v 1.6 1.7 0.1
v 1.6 1.8 0.4
v 1.6 1.8 -0.4
v -1.6 1.4 0.4
v -1.6 1.8 0.4
v -1.5 1.5 0.4
v -1.5 1.7 0.4
v -1.4 1.3 0.4
v -1.4 1.4 0.4
v -1.4 1.5 0.4
v -1.2 1.2 0.4
v -1.2 1.3 0.4
v -1.2 1.4 0.4
v -1 1.1 0.4
v -1 1.2 0.4
v -1 1.3 0.4
v -0.9 1 0.4
v -0.9 1.1 0.4
v -0.9 1.2 0.4
v -0.7 0.8 0.4
v -0.7 1 0.4
v -0.6 0.6 0.4
v -0.6 0.8 0.4
v -0.6 0.9 0.4
v -0.6 1.1 0.4
v -0.5 0.7 0.4
v -0.5 0.8 0.4
v -0.5 0.9 0.4
v -0.5 1.5 0.4
v -0.4 0.4 0.4
v -0.4 0.6 0.4
v -0.4 0.9 0.4
v -0.4 1.4 0.4
v -0.3 0.5 0.4
v -0.3 0.7 0.4
v -0.2 0 0.4
v -0.2 0.4 0.4
v -0.2 0.5 0.4
v -0.1 0.1 0.4
v -0.1 0.4 0.4
v -0.1 0.8 0.4
v -0.1 0.9 0.4
v -0.1 1.4 0.4
v -0.1 1.5 0.4
v 0 0 0.4
v 0 0.1 0.4
v 0.1 0.8 0.4
v 0.1 1.5 0.4
v 0.2 0 0.4
v 0.2 0.4 0.4
v 0.2 0.8 0.4
v 0.2 1.4 0.4
v 0.4 0.4 0.4
v 0.4 0.6 0.4
v 0.4 0.8 0.4
v 0.4 1.4 0.4
v 0.5 0.8 0.4
v 0.5 1.5 0.4
v 0.6 0.6 0.4
v 0.6 0.8 0.4
v 0.8 0.8 0.4
v 0.8 1 0.4
v 1 1 0.4
v 1 1.2 0.4
v 1.3 1.2 0.4
v 1.3 1.3 0.4
v 1.4 1.3 0.4
v 1.4 1.4 0.4
v 1.6 1.4 0.4
v 1.6 1.7 0.4
v 1.6 1.8 0.4
v -1.5 1.6 -0.3
v -1.5 1.8 -0.3
v -0.4 1.5 -0.3
v -0.4 1.6 -0.3
v -0.3 1.2 -0.3
v -0.3 1.5 -0.3
v -0.2 0.1 -0.3
v -0.2 1.2 -0.3
v 0 0.1 -0.3
v 0.2 0.1 -0.3
v 0.2 1.2 -0.3
v 0.3 1.2 -0.3
v 0.3 1.5 -0.3
v 0.4 1.5 -0.3
v 0.4 1.6 -0.3
v 1.5 1.6 -0.3
v 1.5 1.8 -0.3
v -1.6 1.4 0.3
v -1.6 1.6 0.3
v -1.5 1.5 0.3
v -1.5 1.6 0.3
v -1.5 1.7 0.3
v -1.5 1.8 0.3
v -1.4 1.3 0.3
v -1.4 1.4 0.3
v -1.4 1.5 0.3
v -1.2 1.2 0.3
v -1.2 1.3 0.3
v -1.2 1.4 0.3
v -1 1.1 0.3
v -1 1.2 0.3
v -1 1.3 0.3
v -0.9 1 0.3
v -0.9 1.1 0.3
v -0.9 1.2 0.3
v -0.7 0.8 0.3
v -0.7 1 0.3
v -0.6 0.6 0.3
v -0.6 0.8 0.3
v -0.6 0.9 0.3
v -0.6 1.1 0.3
v -0.5 0.7 0.3
v -0.5 0.8 0.3
v -0.5 0.9 0.3
v -0.5 1.5 0.3
v -0.4 0.4 0.3
v -0.4 0.6 0.3
v -0.4 0.9 0.3
v -0.4 1.4 0.3
v -0.3 0.5 0.3
v -0.3 0.7 0.3
v -0.2 0.1 0.3
v -0.2 0.4 0.3
v -0.2 0.5 0.3
v -0.1 0.1 0.3
v -0.1 0.4 0.3
v -0.1 0.8 0.3
v -0.1 0.9 0.3
v -0.1 1.4 0.3
v -0.1 1.5 0.3
v 0 0.1 0.3
v 0.1 0.8 0.3
v 0.1 1.5 0.3
v 0.2 0.1 0.3
v 0.2 0.4 0.3
v 0.2 0.8 0.3
v 0.2 1.4 0.3
v 0.4 0.4 0.3
v 0.4 0.6 0.3
v 0.4 0.8 0.3
v 0.4 1.4 0.3
v 0.5 0.8 0.3
v 0.5 1.5 0.3
v 0.6 0.6 0.3
v 0.6 0.8 0.3
v 0.8 0.8 0.3
v 0.8 1 0.3
v 1 1 0.3
v 1 1.2 0.3
v 1.3 1.2 0.3
v 1.3 1.3 0.3
v 1.4 1.3 0.3
v 1.4 1.4 0.3
v 1.5 1.6 0.3
v 1.5 1.7 0.3
v 1.5 1.8 0.3
v 1.6 1.4 0.3
v 1.6 1.6 0.3
v -1.6 1.6 -0.4
v -1.6 1.8 -0.4
v -0.4 1.5 -0.4
v -0.4 1.6 -0.4
v -0.3 1.2 -0.4
v -0.3 1.5 -0.4
v -0.2 0 -0.4
v -0.2 1.2 -0.4
v 0.2 0 -0.4
v 0.2 1.2 -0.4
v 0.3 1.2 -0.4
v 0.3 1.5 -0.4
v 0.4 1.5 -0.4
v 0.4 1.6 -0.4
v 1.6 1.6 -0.4
v 1.6 1.8 -0.4
v -0.2 0 0.4
v 0 0 0.4
v 0.2 0 0.4
v 0 0 -0.3
v 0.2 0 -0.3
v -0.2 0 -0.4
v 0.2 0 -0.4
v -0.4 0.4 0.4
v -0.2 0.4 0.4
v 0.2 0.4 0.4
v 0.4 0.4 0.4
v -0.4 0.4 0.3
v -0.2 0.4 0.3
v 0.2 0.4 0.3
v 0.4 0.4 0.3
v -0.6 0.6 0.4
v -0.4 0.6 0.4
v 0.4 0.6 0.4
v 0.6 0.6 0.4
v -0.6 0.6 0.3
v -0.4 0.6 0.3
v 0.4 0.6 0.3
v 0.6 0.6 0.3
v -0.7 0.8 0.4
v -0.6 0.8 0.4
v 0.6 0.8 0.4
v 0.8 0.8 0.4
v -0.7 0.8 0.3
v -0.6 0.8 0.3
v 0.6 0.8 0.3
v 0.8 0.8 0.3
v -0.9 1 0.4
v -0.7 1 0.4
v 0.8 1 0.4
v 1 1 0.4
v -0.9 1 0.3
v -0.7 1 0.3
v 0.8 1 0.3
v 1 1 0.3
v -1 1.1 0.4
v -0.9 1.1 0.4
v -1 1.1 0.3
v -0.9 1.1 0.3
v -1.2 1.2 0.4
v -1 1.2 0.4
v 1 1.2 0.4
v 1.3 1.2 0.4
v -1.2 1.2 0.3
v -1 1.2 0.3
v 1 1.2 0.3
v 1.3 1.2 0.3
v -0.3 1.2 -0.3
v -0.2 1.2 -0.3
v 0.2 1.2 -0.3
v 0.3 1.2 -0.3
v -0.3 1.2 -0.4
v -0.2 1.2 -0.4
v 0.2 1.2 -0.4
v 0.3 1.2 -0.4
v -1.4 1.3 0.4
v -1.2 1.3 0.4
v 1.3 1.3 0.4
v 1.4 1.3 0.4
v -1.4 1.3 0.3
v -1.2 1.3 0.3
v 1.3 1.3 0.3
v 1.4 1.3 0.3
v -1.6 1.4 0.4
v -1.4 1.4 0.4
v 1.4 1.4 0.4
v 1.6 1.4 0.4
v -1.6 1.4 0.3
v -1.4 1.4 0.3
v 1.4 1.4 0.3
v 1.6 1.4 0.3
v -0.4 1.5 -0.3
v -0.3 1.5 -0.3
v 0.3 1.5 -0.3
v 0.4 1.5 -0.3
v -0.4 1.5 -0.4
v -0.3 1.5 -0.4
v 0.3 1.5 -0.4
v 0.4 1.5 -0.4
v -1.6 1.6 0.3
v -1.5 1.6 0.3
v 1.5 1.6 0.3
v 1.6 1.6 0.3
v 1.5 1.6 0.1
v 1.6 1.6 0.1
v -1.5 1.6 -0.3
v -0.4 1.6 -0.3
v 0.4 1.6 -0.3
v 1.5 1.6 -0.3
v -1.6 1.6 -0.4
v -0.4 1.6 -0.4
v 0.4 1.6 -0.4
v 1.6 1.6 -0.4
v -0.2 0.1 0.3
v -0.1 0.1 0.3
v 0 0.1 0.3
v 0.2 0.1 0.3
v -0.2 0.1 -0.3
v 0 0.1 -0.3
v 0.2 0.1 -0.3
v -1.6 1.8 0.4
v 1.6 1.8 0.4
v -1.5 1.8 0.3
v 1.5 1.8 0.3
v -1.5 1.8 -0.3
v 1.5 1.8 -0.3
v -1.6 1.8 -0.4
v 1.6 1.8 -0.4

# faces
f 3/3/1 2/3/1 1/3/1
f 5/3/1 3/3/1 1/3/1
f 5/3/1 4/3/1 3/3/1
f 6/3/1 4/3/1 5/3/1
f 9/3/1 8/3/1 7/3/1
f 10/3/1 8/3/1 9/3/1
f 13/3/1 12/3/1 11/3/1
f 14/3/1 12/3/1 13/3/1
f 17/3/1 16/3/1 15/3/1
f 18/3/1 16/3/1 17/3/1
f 21/3/1 20/3/1 19/3/1
f 22/3/1 20/3/1 21/3/1
f 25/3/1 24/3/1 23/3/1
f 26/3/1 24/3/1 25/3/1
f 29/3/1 28/3/1 27/3/1
f 30/3/1 28/3/1 29/3/1
f 33/3/1 32/3/1 31/3/1
f 34/3/1 32/3/1 33/3/1
f 37/3/1 36/3/1 35/3/1
f 38/3/1 36/3/1 37/3/1
f 41/3/1 40/3/1 39/3/1
f 42/3/1 40/3/1 41/3/1
f 45/3/1 44/3/1 43/3/1
f 46/3/1 44/3/1 45/3/1
f 47/3/1 45/3/1 43/3/1
f 48/3/1 45/3/1 47/3/1
f 49/3/1 44/3/1 46/3/1
f 50/3/1 44/3/1 49/3/1
f 54/2/1 52/2/1 51/2/1
f 55/3/1 53/3/1 52/3/1
f 55/2/1 52/2/1 54/2/1
f 56/3/1 55/3/1 54/3/1
f 57/3/1 53/3/1 55/3/1
f 57/3/1 55/3/1 56/3/1
f 58/3/2 59/3/2 60/3/2
f 60/3/2 59/3/2 61/3/2
f 61/3/2 59/3/2 62/3/2
f 63/2/2 64/2/2 66/2/2
f 64/3/2 65/3/2 67/3/2
f 66/2/2 64/2/2 67/2/2
f 63/2/2 66/2/2 68/2/2
f 68/2/2 66/2/2 69/2/2
f 67/3/2 65/3/2 70/3/2
f 70/3/2 65/3/2 71/3/2
f 72/3/2 73/3/2 74/3/2
f 74/3/2 73/3/2 75/3/2
f 76/2/2 77/2/2 78/2/2
f 78/2/2 77/2/2 79/2/2
f 80/3/2 81/3/2 82/3/2
f 82/3/2 81/3/2 83/3/2
f 84/2/2 85/2/2 86/2/2
f 86/2/2 85/2/2 87/2/2
f 88/2/2 89/2/2 90/2/2
f 90/2/2 89/2/2 91/2/2
f 92/2/2 93/2/2 94/2/2
f 94/2/2 93/2/2 95/2/2
f 96/2/2 97/2/2 98/2/2
f 98/2/2 97/2/2 99/2/2
f 100/2/2 101/2/2 102/2/2
f 102/2/2 101/2/2 103/2/2
f 104/2/2 105/2/2 106/2/2
f 104/2/2 106/2/2 109/2/2
f 106/2/2 107/2/2 109/2/2
f 107/3/2 108/3/2 110/3/2
f 109/2/2 107/2/2 110/2/2
f 109/3/2 110/3/2 111/3/2
f 110/3/2 108/3/2 112/3/2
f 111/3/2 110/3/2 112/3/2
f 115/3/3 114/3/3 113/3/3
f 116/3/3 114/3/3 115/3/3
f 118/3/3 115/3/3 113/3/3
f 119/2/3 116/2/3 115/2/3
f 119/3/3 115/3/3 118/3/3
f 121/3/3 118/3/3 117/3/3
f 122/2/3 119/2/3 118/2/3
f 122/3/3 118/3/3 121/3/3
f 124/3/3 121/3/3 120/3/3
f 125/2/3 122/2/3 121/2/3
f 125/3/3 121/3/3 124/3/3
f 127/3/3 124/3/3 123/3/3
f 128/2/3 125/2/3 124/2/3
f 128/3/3 124/3/3 127/3/3
f 130/3/3 127/3/3 126/3/3
f 132/3/3 130/3/3 129/3/3
f 133/3/3 130/3/3 132/3/3
f 134/2/3 128/2/3 127/2/3
f 134/3/3 130/3/3 133/3/3
f 134/3/3 127/3/3 130/3/3
f 135/3/3 133/3/3 132/3/3
f 135/3/3 132/3/3 131/3/3
f 136/3/3 133/3/3 135/3/3
f 137/2/3 134/2/3 133/2/3
f 137/3/3 133/3/3 136/3/3
f 138/2/3 116/2/3 119/2/3
f 138/2/3 134/2/3 137/2/3
f 138/2/3 119/2/3 122/2/3
f 138/2/3 122/2/3 125/2/3
f 138/2/3 125/2/3 128/2/3
f 138/2/3 128/2/3 134/2/3
f 140/3/3 135/3/3 131/3/3
f 141/1/3 137/1/3 136/1/3
f 141/1/3 138/1/3 137/1/3
f 142/1/3 138/1/3 141/1/3
f 143/3/3 140/3/3 139/3/3
f 144/2/3 136/2/3 135/2/3
f 144/3/3 140/3/3 143/3/3
f 144/3/3 135/3/3 140/3/3
f 146/3/3 143/3/3 139/3/3
f 147/2/3 144/2/3 143/2/3
f 147/3/3 143/3/3 146/3/3
f 148/3/3 146/3/3 145/3/3
f 149/2/3 147/2/3 146/2/3
f 149/3/3 146/3/3 148/3/3
f 150/2/3 136/2/3 144/2/3
f 150/2/3 147/2/3 149/2/3
f 150/1/3 141/1/3 136/1/3
f 150/2/3 144/2/3 147/2/3
f 151/2/3 142/2/3 141/2/3
f 151/1/3 141/1/3 150/1/3
f 152/1/3 138/1/3 142/1/3
f 152/2/3 142/2/3 151/2/3
f 153/2/3 116/2/3 138/2/3
f 153/1/3 138/1/3 152/1/3
f 154/3/3 148/3/3 145/3/3
f 155/2/3 151/2/3 150/2/3
f 155/3/3 148/3/3 154/3/3
f 155/2/3 152/2/3 151/2/3
f 155/2/3 153/2/3 152/2/3
f 155/2/3 149/2/3 148/2/3
f 155/2/3 150/2/3 149/2/3
f 156/2/3 155/2/3 154/2/3
f 156/2/3 153/2/3 155/2/3
f 157/2/3 116/2/3 153/2/3
f 157/2/3 153/2/3 156/2/3
f 158/2/3 156/2/3 154/2/3
f 159/2/3 156/2/3 158/2/3
f 160/1/3 157/1/3 156/1/3
f 160/2/3 156/2/3 159/2/3
f 161/1/3 157/1/3 160/1/3
f 162/2/3 160/2/3 159/2/3
f 162/2/3 161/2/3 160/2/3
f 163/2/3 161/2/3 162/2/3
f 164/2/3 161/2/3 163/2/3
f 165/1/3 157/1/3 161/1/3
f 165/2/3 161/2/3 164/2/3
f 166/2/3 164/2/3 163/2/3
f 166/1/3 165/1/3 164/1/3
f 167/2/3 116/2/3 157/2/3
f 167/1/3 165/1/3 166/1/3
f 167/1/3 157/1/3 165/1/3
f 168/2/3 166/2/3 163/2/3
f 168/2/3 167/2/3 166/2/3
f 169/2/3 167/2/3 168/2/3
f 170/2/3 167/2/3 169/2/3
f 171/2/3 167/2/3 170/2/3
f 172/2/3 167/2/3 171/2/3
f 173/2/3 167/2/3 172/2/3
f 174/2/3 167/2/3 173/2/3
f 175/2/3 167/2/3 174/2/3
f 176/2/3 167/2/3 175/2/3
f 177/2/3 167/2/3 176/2/3
f 178/2/3 167/2/3 177/2/3
f 179/3/3 114/3/3 116/3/3
f 179/2/3 167/2/3 178/2/3
f 179/2/3 116/2/3 167/2/3
f 180/3/3 114/3/3 179/3/3
f 184/3/3 182/3/3 181/3/3
f 186/3/3 184/3/3 183/3/3
f 188/3/3 186/3/3 185/3/3
f 189/3/3 188/3/3 187/3/3
f 190/3/3 188/3/3 189/3/3
f 191/3/3 186/3/3 188/3/3
f 191/3/3 188/3/3 190/3/3
f 192/3/3 186/3/3 191/3/3
f 193/3/3 184/3/3 186/3/3
f 193/3/3 186/3/3 192/3/3
f 194/3/3 184/3/3 193/3/3
f 195/3/3 182/3/3 184/3/3
f 195/3/3 184/3/3 194/3/3
f 196/3/3 182/3/3 195/3/3
f 197/3/3 182/3/3 196/3/3
f 198/3/4 199/3/4 200/3/4
f 200/3/4 199/3/4 201/3/4
f 198/3/4 200/3/4 205/3/4
f 200/2/4 201/2/4 206/2/4
f 201/2/4 202/2/4 206/2/4
f 205/3/4 200/3/4 206/3/4
f 204/3/4 205/3/4 208/3/4
f 205/2/4 206/2/4 209/2/4
f 208/3/4 205/3/4 209/3/4
f 207/3/4 208/3/4 211/3/4
f 208/2/4 209/2/4 212/2/4
f 211/3/4 208/3/4 212/3/4
f 210/3/4 211/3/4 214/3/4
f 211/2/4 212/2/4 215/2/4
f 214/3/4 211/3/4 215/3/4
f 213/3/4 214/3/4 217/3/4
f 216/3/4 217/3/4 219/3/4
f 219/3/4 217/3/4 220/3/4
f 214/2/4 215/2/4 221/2/4
f 220/3/4 217/3/4 221/3/4
f 217/3/4 214/3/4 221/3/4
f 219/3/4 220/3/4 222/3/4
f 218/3/4 219/3/4 222/3/4
f 222/3/4 220/3/4 223/3/4
f 220/2/4 221/2/4 224/2/4
f 223/3/4 220/3/4 224/3/4
f 206/2/4 202/2/4 225/2/4
f 224/2/4 221/2/4 225/2/4
f 209/2/4 206/2/4 225/2/4
f 212/2/4 209/2/4 225/2/4
f 215/2/4 212/2/4 225/2/4
f 221/2/4 215/2/4 225/2/4
f 218/3/4 222/3/4 227/3/4
f 223/1/4 224/1/4 228/1/4
f 224/1/4 225/1/4 228/1/4
f 228/1/4 225/1/4 229/1/4
f 226/3/4 227/3/4 230/3/4
f 222/2/4 223/2/4 231/2/4
f 230/3/4 227/3/4 231/3/4
f 227/3/4 222/3/4 231/3/4
f 226/3/4 230/3/4 233/3/4
f 230/2/4 231/2/4 234/2/4
f 233/3/4 230/3/4 234/3/4
f 232/3/4 233/3/4 235/3/4
f 233/2/4 234/2/4 236/2/4
f 235/3/4 233/3/4 236/3/4
f 231/2/4 223/2/4 237/2/4
f 236/2/4 234/2/4 237/2/4
f 223/1/4 228/1/4 237/1/4
f 234/2/4 231/2/4 237/2/4
f 228/2/4 229/2/4 238/2/4
f 237/1/4 228/1/4 238/1/4
f 229/1/4 225/1/4 239/1/4
f 238/2/4 229/2/4 239/2/4
f 225/2/4 202/2/4 240/2/4
f 239/1/4 225/1/4 240/1/4
f 237/2/4 238/2/4 241/2/4
f 238/2/4 239/2/4 241/2/4
f 239/2/4 240/2/4 241/2/4
f 235/2/4 236/2/4 241/2/4
f 236/2/4 237/2/4 241/2/4
f 241/2/4 240/2/4 242/2/4
f 240/2/4 202/2/4 243/2/4
f 242/2/4 240/2/4 243/2/4
f 241/2/4 242/2/4 244/2/4
f 244/2/4 242/2/4 245/2/4
f 242/1/4 243/1/4 246/1/4
f 245/2/4 242/2/4 246/2/4
f 246/1/4 243/1/4 247/1/4
f 245/2/4 246/2/4 248/2/4
f 246/2/4 247/2/4 248/2/4
f 248/2/4 247/2/4 249/2/4
f 249/2/4 247/2/4 250/2/4
f 247/1/4 243/1/4 251/1/4
f 250/2/4 247/2/4 251/2/4
f 249/2/4 250/2/4 252/2/4
f 250/1/4 251/1/4 252/1/4
f 243/2/4 202/2/4 253/2/4
f 252/1/4 251/1/4 253/1/4
f 251/1/4 243/1/4 253/1/4
f 249/2/4 252/2/4 254/2/4
f 252/2/4 253/2/4 254/2/4
f 254/2/4 253/2/4 255/2/4
f 255/2/4 253/2/4 256/2/4
f 256/2/4 253/2/4 257/2/4
f 257/2/4 253/2/4 258/2/4
f 258/2/4 253/2/4 259/2/4
f 259/2/4 253/2/4 260/2/4
f 260/2/4 253/2/4 261/2/4
f 261/2/4 253/2/4 262/2/4
f 262/2/4 253/2/4 263/2/4
f 253/2/4 202/2/4 264/2/4
f 263/2/4 253/2/4 264/2/4
f 202/3/4 203/3/4 265/3/4
f 264/2/4 202/2/4 265/2/4
f 265/3/4 203/3/4 266/3/4
f 263/2/4 264/2/4 267/2/4
f 267/2/4 264/2/4 268/2/4
f 269/3/4 270/3/4 272/3/4
f 271/3/4 272/3/4 274/3/4
f 273/3/4 274/3/4 276/3/4
f 275/3/4 276/3/4 277/3/4
f 276/3/4 274/3/4 278/3/4
f 277/3/4 276/3/4 278/3/4
f 278/3/4 274/3/4 279/3/4
f 274/3/4 272/3/4 280/3/4
f 279/3/4 274/3/4 280/3/4
f 280/3/4 272/3/4 281/3/4
f 272/3/4 270/3/4 282/3/4
f 281/3/4 272/3/4 282/3/4
f 282/3/4 270/3/4 283/3/4
f 283/3/4 270/3/4 284/3/4
f 288/3/5 286/3/5 285/3/5
f 288/2/5 287/2/5 286/2/5
f 289/2/5 287/2/5 288/2/5
f 290/3/5 288/3/5 285/3/5
f 290/3/5 289/3/5 288/3/5
f 291/3/5 289/3/5 290/3/5
f 296/3/5 293/3/5 292/3/5
f 297/3/5 293/3/5 296/3/5
f 298/2/5 295/2/5 294/2/5
f 299/2/5 295/2/5 298/2/5
f 304/3/5 301/3/5 300/3/5
f 305/3/5 301/3/5 304/3/5
f 306/2/5 303/2/5 302/2/5
f 307/2/5 303/2/5 306/2/5
f 312/3/5 309/3/5 308/3/5
f 313/3/5 309/3/5 312/3/5
f 314/2/5 311/2/5 310/2/5
f 315/2/5 311/2/5 314/2/5
f 320/3/5 317/3/5 316/3/5
f 321/3/5 317/3/5 320/3/5
f 322/2/5 319/2/5 318/2/5
f 323/2/5 319/2/5 322/2/5
f 326/3/5 325/3/5 324/3/5
f 327/3/5 325/3/5 326/3/5
f 332/3/5 329/3/5 328/3/5
f 333/3/5 329/3/5 332/3/5
f 334/2/5 331/2/5 330/2/5
f 335/2/5 331/2/5 334/2/5
f 340/3/5 337/3/5 336/3/5
f 341/3/5 337/3/5 340/3/5
f 342/3/5 339/3/5 338/3/5
f 343/3/5 339/3/5 342/3/5
f 348/3/5 345/3/5 344/3/5
f 349/3/5 345/3/5 348/3/5
f 350/2/5 347/2/5 346/2/5
f 351/2/5 347/2/5 350/2/5
f 356/3/5 353/3/5 352/3/5
f 357/3/5 353/3/5 356/3/5
f 358/2/5 355/2/5 354/2/5
f 359/2/5 355/2/5 358/2/5
f 364/3/5 361/3/5 360/3/5
f 365/3/5 361/3/5 364/3/5
f 366/3/5 363/3/5 362/3/5
f 367/3/5 363/3/5 366/3/5
f 372/2/5 371/2/5 370/2/5
f 373/2/5 371/2/5 372/2/5
f 374/3/5 369/3/5 368/3/5
f 377/3/5 373/3/5 372/3/5
f 378/3/5 375/3/5 374/3/5
f 378/3/5 374/3/5 368/3/5
f 379/3/5 375/3/5 378/3/5
f 380/3/5 377/3/5 376/3/5
f 381/3/5 373/3/5 377/3/5
f 381/3/5 377/3/5 380/3/5
f 382/3/6 383/3/6 386/3/6
f 383/3/6 384/3/6 386/3/6
f 384/2/6 385/2/6 387/2/6
f 386/3/6 384/3/6 387/3/6
f 387/2/6 385/2/6 388/2/6
f 389/3/6 390/3/6 391/3/6
f 391/3/6 390/3/6 392/3/6
f 389/3/6 391/3/6 393/3/6
f 392/3/6 390/3/6 394/3/6
f 389/3/6 393/3/6 395/3/6
f 393/3/6 394/3/6 395/3/6
f 394/3/6 390/3/6 396/3/6
f 395/3/6 394/3/6 396/3/6
